<svg xmlns="http://www.w3.org/2000/svg" viewBox="0 0 25 28.98"><defs><style>.cls-1{fill:#231f20;}.cls-2{font-size:13px;fill:#8d7d0a;font-family:NotoSans, Noto Sans;}</style></defs><title>korpa</title><g id="Layer_2" data-name="Layer 2"><g id="Layer_1-2" data-name="Layer 1"><path class="cls-1" d="M23.78,3.95a.57.57,0,0,0-.57-.54H18.4a6.8,6.8,0,0,0-11.79,0H1.79a.57.57,0,0,0-.57.54L0,28.38a.57.57,0,0,0,.57.6H24.43a.57.57,0,0,0,.57-.6ZM18.18,6.82a.57.57,0,1,1-.57-.57.57.57,0,0,1,.57.57ZM12.5,1.14A5.67,5.67,0,0,1,17,3.41H8A5.67,5.67,0,0,1,12.5,1.14ZM7.39,6.25a.57.57,0,1,1-.57.57.57.57,0,0,1,.57-.57ZM1.16,27.84,2.33,4.55H6.08a6.77,6.77,0,0,0-.4,2.27A1.72,1.72,0,1,0,7.07,5.15a5.54,5.54,0,0,1,.23-.6H17.7a5.58,5.58,0,0,1,.23.6,1.7,1.7,0,1,0,1.39,1.67,6.78,6.78,0,0,0-.4-2.27h3.75l1.17,23.3Zm0,0"/><text class="cls-2" transform="translate(1.82 21.99)">999</text></g></g></svg>