<?xml version="1.0" encoding="utf-8"?>
<!-- Generator: Adobe Illustrator 19.2.0, SVG Export Plug-In . SVG Version: 6.00 Build 0)  -->
<svg version="1.1" id="Layer_1" xmlns="http://www.w3.org/2000/svg" xmlns:xlink="http://www.w3.org/1999/xlink" x="0px" y="0px"
	 width="162.1px" height="21.5px" viewBox="0 0 162.1 21.5" style="enable-background:new 0 0 162.1 21.5;" xml:space="preserve">
<style type="text/css">
	.Drop_x0020_Shadow{fill:none;}
	.Round_x0020_Corners_x0020_2_x0020_pt{fill:#FFFFFF;stroke:#231F20;stroke-miterlimit:10;}
	.Live_x0020_Reflect_x0020_X{fill:none;}
	.Bevel_x0020_Soft{fill:url(#SVGID_1_);}
	.Dusk{fill:#FFFFFF;}
	.Foliage_GS{fill:#FFDD00;}
	.Pompadour_GS{fill-rule:evenodd;clip-rule:evenodd;fill:#44ADE2;}
	.st0{fill:#FFFFFF;}
</style>
<linearGradient id="SVGID_1_" gradientUnits="userSpaceOnUse" x1="-1938.1984" y1="-1676.5" x2="-1937.4912" y2="-1675.7928">
	<stop  offset="0" style="stop-color:#DEDFE3"/>
	<stop  offset="0.1783" style="stop-color:#DADBDF"/>
	<stop  offset="0.3611" style="stop-color:#CECFD3"/>
	<stop  offset="0.546" style="stop-color:#B9BCBF"/>
	<stop  offset="0.7324" style="stop-color:#9CA0A2"/>
	<stop  offset="0.9181" style="stop-color:#787D7E"/>
	<stop  offset="1" style="stop-color:#656B6C"/>
</linearGradient>
<g id="XMLID_1_">
	<g id="XMLID_2_">
		<g id="XMLID_5_">
			<path id="XMLID_18_" class="st0" d="M10.1,10.1c0,0-1.2-0.6-3-0.6c-2.6,0-3.9,2.2-3.9,5c0,2.3,1.2,4.2,3.2,4.2
				c1.5,0,3.6-1.2,3.6-1.2L10.1,10.1L10.1,10.1z M10.4,20.5l-0.2-1.3h-0.1c0,0-2.7,1.6-4.6,1.6c-2.8,0-4.9-2.7-4.9-6.4
				c0-3.4,2.1-7,5.6-7c2,0,3.8,1.1,3.8,1.1V0.6h2.5v19.9H10.4z"/>
			<path id="XMLID_17_" class="st0" d="M21.3,9.3c-2.1,0-3,2.4-3.1,3.4l5.7-0.3C23.9,11.3,23.2,9.3,21.3,9.3 M25.8,14L18,14.1
				c0,2.5,1.1,4.8,3.9,4.8c1.5,0,3.3-0.8,3.3-0.8l0.7,1.2c0,0-2.2,1.6-4.9,1.6c-3.4,0-5.5-2.8-5.5-6.6c0-3.2,2.5-6.9,6-6.9
				c4.2,0,4.8,4.9,4.8,6.2L25.8,14z"/>
			<g id="XMLID_6_">
				<path id="XMLID_16_" class="st0" d="M35.1,9.8c0,0-0.2,0-0.5,0c-1.5,0-2.9,1-3.4,1.7v9h-2.5V7.7h2.2l0.2,1.9h0.1
					c0,0,1.3-2.2,3.7-2.2c0.5,0,1,0.1,1,0.1L35.1,9.8z"/>
				<path id="XMLID_15_" class="st0" d="M53.8,20.5v-8.2c0-1.7-0.6-2.8-2.1-2.8c-1.5,0-3.5,1.3-3.5,1.3s0.1,0.5,0.1,1.3v8.3h-2.5
					v-8.1c0-1.7-0.5-2.8-2.1-2.8c-1.5,0-3.4,1.3-3.4,1.3v9.7h-2.5V7.7h2.2l0.2,1.5h0.1c0,0,2.2-1.8,4.2-1.8c1.1,0,1.9,0.4,2.5,1.1
					c0.5,0.5,0.8,1.1,0.8,1.1s2.5-2.2,4.7-2.2c1.1,0,1.9,0.4,2.5,1.1c1,1.1,1.2,2.2,1.2,3.7v8.3H53.8z"/>
				<path id="XMLID_14_" class="st0" d="M66.2,14.2c-2.3,0-5.1,0.3-5.1,2.6c0,1.4,1,1.9,2,1.9c1.3,0,3.1-1.3,3.1-1.3V14.2z
					 M66.4,20.5L66.2,19h-0.1c-0.8,0.7-2,1.8-3.7,1.8c-1.7,0-3.7-1.2-3.7-3.9c0-3.9,4.4-4.2,7.4-4.2v-0.4c0-2.1-0.6-3.1-2.4-3.1
					c-1.5,0-3.4,1-3.4,1l-0.6-1.6c0,0,2.5-1.3,4.4-1.3c2.9,0,4.3,1.8,4.3,4.5v8.6L66.4,20.5z"/>
				<path id="XMLID_13_" class="st0" d="M76.5,20.9c-2.8,0-5.3-2.5-5.3-6.2c0-3.9,2.5-7.3,6.2-7.3c1.7,0,3.2,0.7,3.2,0.7l-0.6,1.7
					c0,0-0.8-0.4-2-0.4c-2.5,0-4.1,2.2-4.1,5.1c0,2.5,1.5,4.2,3.6,4.2c1.5,0,2.9-0.7,2.9-0.7l0.7,1.2C81.1,19.3,78.9,20.9,76.5,20.9
					"/>
				<path id="XMLID_12_" class="st0" d="M87.8,9.3c-2.1,0-3,2.4-3.1,3.4l5.7-0.3C90.4,11.3,89.7,9.3,87.8,9.3 M92.3,14l-7.8,0.2
					c0,2.5,1.1,4.8,3.9,4.8c1.5,0,3.3-0.8,3.3-0.8l0.7,1.2c0,0-2.2,1.6-4.9,1.6c-3.4,0-5.5-2.8-5.5-6.6c0-3.2,2.5-6.9,6-6.9
					c4.2,0,4.8,4.9,4.8,6.2L92.3,14z"/>
				<path id="XMLID_11_" class="st0" d="M103.8,20.5l-0.2-1.5h-0.1c0,0-2.5,1.8-4.6,1.8c-1.2,0-2-0.4-2.7-1.1c-1-1-1.2-2.1-1.2-3.7
					V7.7h2.4v8.2c0,1.7,0.6,2.8,2.3,2.8s3.7-1.3,3.7-1.3V7.7h2.5v12.8H103.8z"/>
				<path id="XMLID_10_" class="st0" d="M113.8,20.9c-1.3,0-2.3-0.7-2.7-1.7c-0.3-0.7-0.4-1.5-0.4-2.3V9.5h-2.8V7.9l2.8-0.2l0.3-3.2
					l2.2-0.4v3.6h3.6v1.7h-3.6v7.5c0,0.8,0.1,1.3,0.4,1.6c0.3,0.2,0.7,0.4,1.1,0.4c0.9,0,1.8-0.4,1.8-0.4l0.7,1.4
					C117.1,20,115.5,20.9,113.8,20.9"/>
				<path id="XMLID_9_" class="st0" d="M119.3,7.7h2.5v12.8h-2.5V7.7z M120.6,4.4c-0.8,0-1.4-0.7-1.4-1.4s0.6-1.4,1.4-1.4
					c0.8,0,1.4,0.6,1.4,1.4S121.3,4.4,120.6,4.4"/>
				<path id="XMLID_8_" class="st0" d="M130,20.9c-2.8,0-5.3-2.5-5.3-6.2c0-3.9,2.5-7.3,6.2-7.3c1.7,0,3.2,0.7,3.2,0.7l-0.6,1.7
					c0,0-0.8-0.4-2-0.4c-2.5,0-4.1,2.2-4.1,5.1c0,2.5,1.4,4.2,3.6,4.2c1.5,0,2.9-0.7,2.9-0.7l0.7,1.2
					C134.5,19.3,132.3,20.9,130,20.9"/>
				<path id="XMLID_7_" class="st0" d="M143.3,14.2c-2.3,0-5.1,0.3-5.1,2.6c0,1.4,1,1.9,2,1.9c1.3,0,3.1-1.3,3.1-1.3V14.2z
					 M143.5,20.5l-0.2-1.5h-0.1c-0.8,0.7-2,1.8-3.7,1.8c-1.7,0-3.7-1.2-3.7-3.9c0-3.9,4.4-4.2,7.4-4.2v-0.4c0-2.1-0.6-3.1-2.4-3.1
					c-1.5,0-3.4,1-3.4,1l-0.6-1.6c0,0,2.5-1.3,4.4-1.3c2.9,0,4.3,1.8,4.3,4.5v8.6L143.5,20.5z"/>
			</g>
		</g>
		<path id="XMLID_4_" class="st0" d="M150,20.9c-0.3-0.3-0.9-1-0.9-2.1V0.6h2.5v17.8c0,1.1,0.2,1.4,0.4,1.8L150,20.9z"/>
		<path id="XMLID_3_" class="st0" d="M157.6,2.9h-0.6v1.5h0.5c0.5,0,0.9-0.2,0.9-0.8C158.4,3.2,158.1,2.9,157.6,2.9 M158.7,6.8
			L158,5.4c-0.1-0.1-0.1-0.3-0.3-0.4c-0.1-0.1-0.3-0.2-0.5-0.2h-0.1v1.9h-0.6V2.4h1.1c0.8,0,1.5,0.3,1.5,1.1c0,0.6-0.4,1.1-1.1,1.1
			v0c0,0,0.1,0,0.3,0.2c0.1,0.1,0.1,0.2,0.2,0.3l0.9,1.6L158.7,6.8z M157.7,1.4c-1.7,0-3.1,1.4-3.1,3.1c0,1.7,1.4,3.1,3.1,3.1
			c1.7,0,3.1-1.4,3.1-3.1S159.4,1.4,157.7,1.4 M157.7,8.2c-2,0-3.7-1.6-3.7-3.6c0-2.1,1.6-3.7,3.7-3.7c2,0,3.7,1.6,3.7,3.7
			C161.5,6.6,159.8,8.2,157.7,8.2"/>
	</g>
</g>
</svg>
