<?xml version="1.0" encoding="utf-8"?>
<!-- Generator: Adobe Illustrator 19.2.0, SVG Export Plug-In . SVG Version: 6.00 Build 0)  -->
<svg version="1.1" id="Layer_1" xmlns="http://www.w3.org/2000/svg" xmlns:xlink="http://www.w3.org/1999/xlink" x="0px" y="0px"
	 width="169.5px" height="45.5px" viewBox="0 0 169.5 45.5" style="enable-background:new 0 0 169.5 45.5;" xml:space="preserve">
<style type="text/css">
	.Drop_x0020_Shadow{fill:none;}
	.Round_x0020_Corners_x0020_2_x0020_pt{fill:#FFFFFF;stroke:#231F20;stroke-miterlimit:10;}
	.Live_x0020_Reflect_x0020_X{fill:none;}
	.Bevel_x0020_Soft{fill:url(#SVGID_1_);}
	.Dusk{fill:#FFFFFF;}
	.Foliage_GS{fill:#FFDD00;}
	.Pompadour_GS{fill-rule:evenodd;clip-rule:evenodd;fill:#44ADE2;}
	.st0{fill:#49484C;}
	.st1{fill:#838088;}
</style>
<linearGradient id="SVGID_1_" gradientUnits="userSpaceOnUse" x1="-606.1667" y1="-977.1667" x2="-605.4595" y2="-976.4595">
	<stop  offset="0" style="stop-color:#DEDFE3"/>
	<stop  offset="0.1783" style="stop-color:#DADBDF"/>
	<stop  offset="0.3611" style="stop-color:#CECFD3"/>
	<stop  offset="0.546" style="stop-color:#B9BCBF"/>
	<stop  offset="0.7324" style="stop-color:#9CA0A2"/>
	<stop  offset="0.9181" style="stop-color:#787D7E"/>
	<stop  offset="1" style="stop-color:#656B6C"/>
</linearGradient>
<g>
	<g id="XMLID_559_">
		<g id="XMLID_560_">
			<g id="XMLID_563_">
				<path id="XMLID_576_" class="st0" d="M10.5,10.3c0,0-1.3-0.6-3.1-0.6c-2.7,0-4.1,2.3-4.1,5.2c0,2.4,1.2,4.4,3.3,4.4
					c1.5,0,3.8-1.2,3.8-1.2L10.5,10.3L10.5,10.3z M10.8,21.3l-0.2-1.4h-0.1c0,0-2.8,1.7-4.8,1.7c-3,0-5.1-2.8-5.1-6.7
					c0-3.6,2.2-7.4,5.9-7.4c2.1,0,4,1.1,4,1.1V0.4h2.6v20.9H10.8z"/>
				<path id="XMLID_575_" class="st0" d="M22.2,9.5c-2.2,0-3.1,2.5-3.3,3.5l6-0.3C24.9,11.6,24.3,9.5,22.2,9.5 M26.9,14.4l-8.2,0.2
					c0,2.7,1.2,5,4.1,5c1.5,0,3.4-0.9,3.4-0.9l0.7,1.3c0,0-2.3,1.7-5.1,1.7c-3.5,0-5.7-3-5.7-6.9c0-3.4,2.6-7.2,6.3-7.2
					c4.4,0,5.1,5.1,5.1,6.5L26.9,14.4z"/>
				<g id="XMLID_564_">
					<path id="XMLID_574_" class="st0" d="M36.7,10c0,0-0.2,0-0.6,0c-1.5,0-3,1.1-3.6,1.8v9.5H30V7.9h2.3l0.2,2h0.1
						c0,0,1.4-2.3,3.9-2.3c0.5,0,1,0.1,1,0.1L36.7,10z"/>
					<path id="XMLID_573_" class="st0" d="M56.3,21.3v-8.6c0-1.8-0.6-3-2.2-3c-1.6,0-3.6,1.4-3.6,1.4s0.1,0.6,0.1,1.3v8.7H48v-8.5
						c0-1.8-0.6-3-2.2-3c-1.6,0-3.6,1.4-3.6,1.4v10.2h-2.6V7.9H42l0.2,1.6h0.1c0,0,2.3-1.9,4.4-1.9c1.1,0,2,0.4,2.7,1.1
						c0.5,0.6,0.8,1.1,0.8,1.1s2.6-2.3,4.9-2.3c1.1,0,2,0.4,2.6,1.1c1.1,1.1,1.3,2.3,1.3,3.9v8.7H56.3z"/>
					<path id="XMLID_572_" class="st0" d="M69.3,14.7c-2.4,0-5.4,0.3-5.4,2.8c0,1.5,1,2,2.1,2c1.4,0,3.3-1.3,3.3-1.3V14.7z
						 M69.5,21.3l-0.2-1.6h-0.1c-0.8,0.7-2.1,1.9-3.9,1.9c-1.8,0-3.9-1.3-3.9-4.1c0-4.1,4.6-4.4,7.7-4.4v-0.4c0-2.2-0.6-3.2-2.5-3.2
						c-1.6,0-3.5,1-3.5,1l-0.6-1.7c0,0,2.6-1.4,4.6-1.4c3,0,4.5,1.9,4.5,4.7v9.1L69.5,21.3z"/>
					<path id="XMLID_571_" class="st0" d="M80.1,21.6c-2.9,0-5.5-2.7-5.5-6.5c0-4.1,2.7-7.6,6.5-7.6c1.8,0,3.3,0.8,3.3,0.8L83.8,10
						c0,0-0.8-0.4-2.1-0.4c-2.6,0-4.3,2.3-4.3,5.3c0,2.6,1.5,4.4,3.8,4.4c1.6,0,3.1-0.7,3.1-0.7l0.7,1.3
						C84.9,20,82.6,21.6,80.1,21.6"/>
					<path id="XMLID_570_" class="st0" d="M91.9,9.5c-2.2,0-3.1,2.5-3.3,3.5l6-0.3C94.6,11.6,94,9.5,91.9,9.5 M96.6,14.4l-8.2,0.2
						c0,2.7,1.2,5,4.1,5c1.5,0,3.4-0.9,3.4-0.9l0.7,1.3c0,0-2.3,1.7-5.1,1.7c-3.5,0-5.7-3-5.7-6.9c0-3.4,2.6-7.2,6.3-7.2
						c4.4,0,5.1,5.1,5.1,6.5L96.6,14.4z"/>
					<path id="XMLID_569_" class="st0" d="M108.7,21.3l-0.2-1.6h-0.1c0,0-2.7,1.9-4.8,1.9c-1.2,0-2.1-0.4-2.8-1.1
						c-1-1-1.2-2.2-1.2-3.9V7.9h2.5v8.6c0,1.8,0.7,3,2.4,3c1.8,0,3.9-1.3,3.9-1.3V7.9h2.6v13.4H108.7z"/>
					<path id="XMLID_568_" class="st0" d="M119.2,21.6c-1.4,0-2.4-0.7-2.9-1.8c-0.3-0.7-0.4-1.5-0.4-2.4V9.7h-3V8l3-0.2l0.3-3.4
						l2.3-0.4v3.8h3.8v1.8h-3.8v7.8c0,0.8,0.1,1.4,0.4,1.7c0.3,0.2,0.7,0.4,1.1,0.4c0.9,0,1.9-0.4,1.9-0.4l0.7,1.4
						C122.6,20.7,120.9,21.6,119.2,21.6"/>
					<path id="XMLID_567_" class="st0" d="M125,7.9h2.6v13.4H125V7.9z M126.2,4.4c-0.8,0-1.4-0.7-1.4-1.5s0.7-1.5,1.4-1.5
						c0.8,0,1.5,0.7,1.5,1.5S127.1,4.4,126.2,4.4"/>
					<path id="XMLID_566_" class="st0" d="M136.1,21.6c-2.9,0-5.5-2.7-5.5-6.5c0-4.1,2.7-7.6,6.5-7.6c1.8,0,3.3,0.8,3.3,0.8
						l-0.7,1.8c0,0-0.8-0.4-2.1-0.4c-2.6,0-4.3,2.3-4.3,5.3c0,2.6,1.5,4.4,3.8,4.4c1.6,0,3.1-0.7,3.1-0.7l0.7,1.3
						C140.9,20,138.6,21.6,136.1,21.6"/>
					<path id="XMLID_565_" class="st0" d="M150,14.7c-2.4,0-5.4,0.3-5.4,2.8c0,1.5,1.1,2,2.1,2c1.4,0,3.3-1.3,3.3-1.3V14.7z
						 M150.3,21.3l-0.2-1.6H150c-0.8,0.7-2.1,1.9-3.9,1.9c-1.8,0-3.9-1.3-3.9-4.1c0-4.1,4.6-4.4,7.7-4.4v-0.4c0-2.2-0.6-3.2-2.5-3.2
						c-1.6,0-3.5,1-3.5,1l-0.6-1.7c0,0,2.6-1.4,4.6-1.4c3,0,4.5,1.9,4.5,4.7v9.1L150.3,21.3z"/>
				</g>
			</g>
			<path id="XMLID_562_" class="st0" d="M157.1,21.7c-0.3-0.3-0.9-1-0.9-2.2V0.4h2.6v18.7c0,1.2,0.2,1.5,0.4,1.9L157.1,21.7z"/>
			<path id="XMLID_561_" class="st0" d="M165.1,2.8h-0.6v1.5h0.5c0.5,0,0.9-0.2,0.9-0.8C165.9,3.1,165.6,2.8,165.1,2.8 M166.2,6.9
				l-0.7-1.4c-0.1-0.1-0.1-0.3-0.3-0.4s-0.3-0.2-0.6-0.2h-0.1v2h-0.6V2.3h1.1c0.9,0,1.6,0.3,1.6,1.2c0,0.7-0.4,1.1-1.1,1.1v0
				c0,0,0.1,0,0.3,0.2c0.1,0.1,0.1,0.2,0.2,0.3l0.9,1.7L166.2,6.9z M165.2,1.3c-1.8,0-3.2,1.4-3.2,3.3c0,1.8,1.4,3.2,3.2,3.2
				c1.8,0,3.2-1.4,3.2-3.2S167,1.3,165.2,1.3 M165.2,8.4c-2.1,0-3.9-1.7-3.9-3.8c0-2.2,1.7-3.9,3.9-3.9c2.1,0,3.9,1.7,3.9,3.9
				C169.1,6.7,167.4,8.4,165.2,8.4"/>
		</g>
	</g>
	<g id="XMLID_541_">
		<g id="XMLID_542_">
			<path id="XMLID_558_" class="st1" d="M7.6,31.5c0,0-1.2-0.9-2.7-0.9c-2.2,0-3.3,2.1-3.3,4.5c0,2.1,1.1,3.8,2.8,3.8
				c1.4,0,3.2-1.3,3.2-1.3V31.5z M7.7,39.6l-0.1-1.3h0c0,0-1.8,1.5-3.5,1.5c-1.8,0-3.5-1.6-3.5-4.8c0-3,1.8-5.3,4.1-5.3
				c1.5,0,3,1.1,3,1.1v-6.2h1.1v15L7.7,39.6L7.7,39.6z"/>
			<path id="XMLID_557_" class="st1" d="M15.4,30.4c-1.9,0-2.7,2.4-2.8,3.5l5.1-0.3C17.7,32.5,17.2,30.4,15.4,30.4 M12.6,34.7
				c0,2.8,1.1,4.2,3.1,4.2c1.1,0,2.2-0.6,2.5-0.6l0.3,0.6c-0.2,0.1-1.7,1-3.3,1c-2.2,0-3.8-1.8-3.8-4.9c0-2.7,1.8-5.3,4.1-5.3
				c2.8,0,3.3,3.2,3.3,4.7L12.6,34.7z"/>
			<path id="XMLID_556_" class="st1" d="M25.2,30.8c0,0-0.1,0-0.3,0c-1,0-2.2,1.3-2.5,1.7v7.1h-1.1v-9.7h1l0.1,1.5h0
				c0,0,1.3-1.8,2.7-1.8c0.3,0,0.5,0,0.5,0L25.2,30.8z"/>
			<path id="XMLID_555_" class="st1" d="M39.4,39.6v-6.4c0-1.5-0.4-2.6-1.8-2.6c-1.3,0-3.1,1.4-3.1,1.4s0,0.5,0,1v6.5h-1.1v-6.4
				c0-1.5-0.4-2.6-1.8-2.6c-1.3,0-3.1,1.4-3.1,1.4v7.6h-1.1v-9.7h1l0.1,1.3c0,0,2-1.5,3.4-1.5c0.9,0,1.4,0.4,1.8,0.8
				c0.3,0.4,0.4,0.8,0.4,0.8s2.1-1.6,3.7-1.6c0.8,0,1.3,0.3,1.7,0.7c0.6,0.7,0.7,1.5,0.7,2.7v6.5L39.4,39.6L39.4,39.6z"/>
			<path id="XMLID_554_" class="st1" d="M48.7,34.6c-2,0-4.5,0.3-4.5,2.4c0,1.4,0.9,1.9,1.8,1.9c1.3,0,2.7-1.3,2.7-1.3V34.6z
				 M48.8,39.6l-0.1-1.2h0c-0.7,0.7-1.7,1.4-3,1.4c-1.2,0-2.7-0.8-2.7-2.8c0-2.7,3-3.2,5.6-3.2v-0.8c0-1.6-0.5-2.5-2-2.5
				c-1,0-2.4,0.7-2.4,0.7l-0.2-0.7c0,0,1.7-0.9,3-0.9c1.9,0,2.9,1.2,2.9,3.1v6.8L48.8,39.6L48.8,39.6z"/>
			<path id="XMLID_553_" class="st1" d="M61.7,39.8c-1.9,0-3.6-1.7-3.6-4.6c0-3.3,2-5.5,4.3-5.5c1,0,2,0.4,2,0.4l-0.3,0.7
				c0,0-0.7-0.2-1.4-0.2c-1.9,0-3.4,1.6-3.4,4.6c0,2.5,1.3,3.9,3,3.9c1.1,0,2.1-0.6,2.1-0.6l0.3,0.6C64.6,38.8,63.3,39.8,61.7,39.8"
				/>
			<path id="XMLID_552_" class="st1" d="M71.9,34.6c-2,0-4.5,0.3-4.5,2.4c0,1.4,0.9,1.9,1.8,1.9c1.3,0,2.7-1.3,2.7-1.3V34.6z
				 M72,39.6l-0.1-1.2h0c-0.7,0.7-1.7,1.4-3,1.4c-1.2,0-2.7-0.8-2.7-2.8c0-2.7,3-3.2,5.6-3.2v-0.8c0-1.6-0.5-2.5-2-2.5
				c-1,0-2.4,0.7-2.4,0.7l-0.2-0.7c0,0,1.7-0.9,3-0.9c1.9,0,2.9,1.2,2.9,3.1v6.8L72,39.6L72,39.6z"/>
			<path id="XMLID_551_" class="st1" d="M80.1,30.8c0,0-0.1,0-0.3,0c-1,0-2.2,1.3-2.5,1.7v7.1h-1.1v-9.7h1l0.1,1.5h0
				c0,0,1.3-1.8,2.7-1.8c0.3,0,0.5,0,0.5,0L80.1,30.8z"/>
			<path id="XMLID_550_" class="st1" d="M86,30.4c-1.9,0-2.7,2.4-2.8,3.5l5.1-0.3C88.3,32.5,87.8,30.4,86,30.4 M83.1,34.7
				c0,2.8,1.1,4.2,3.1,4.2c1.1,0,2.2-0.6,2.5-0.6l0.3,0.6c-0.2,0.1-1.7,1-3.2,1C83.6,39.8,82,38,82,35c0-2.7,1.8-5.3,4.1-5.3
				c2.8,0,3.3,3.2,3.3,4.7L83.1,34.7z"/>
			<path id="XMLID_549_" class="st1" d="M100.6,39.8c-1.9,0-3.6-1.7-3.6-4.6c0-3.3,2-5.5,4.3-5.5c1,0,2,0.4,2,0.4l-0.3,0.7
				c0,0-0.7-0.2-1.4-0.2c-1.9,0-3.4,1.6-3.4,4.6c0,2.5,1.3,3.9,3,3.9c1.1,0,2.1-0.6,2.1-0.6l0.3,0.6
				C103.5,38.8,102.1,39.8,100.6,39.8"/>
			<path id="XMLID_548_" class="st1" d="M109.4,30.5c-1.9,0-3,1.7-3,4.2c0,2.5,1.1,4.3,3,4.3c1.9,0,3-1.7,3-4.2
				C112.4,32.3,111.2,30.5,109.4,30.5 M109.4,39.8c-2.6,0-4.2-2.2-4.2-5.1c0-3,1.8-5.1,4.2-5.1c2.6,0,4.2,2.2,4.2,5.1
				C113.5,37.8,111.8,39.8,109.4,39.8"/>
			<path id="XMLID_547_" class="st1" d="M122.7,39.6v-6.4c0-1.5-0.4-2.6-1.9-2.6c-1.4,0-3.4,1.4-3.4,1.4v7.6h-1.1v-9.7h1l0.1,1.3
				c0,0,2.2-1.5,3.8-1.5c0.8,0,1.4,0.3,1.9,0.7c0.6,0.7,0.8,1.5,0.8,2.7v6.5L122.7,39.6L122.7,39.6z"/>
			<path id="XMLID_546_" class="st1" d="M130,39.8c-1.9,0-3.6-1.7-3.6-4.6c0-3.3,2-5.5,4.3-5.5c1,0,2,0.4,2,0.4l-0.3,0.7
				c0,0-0.7-0.2-1.4-0.2c-1.9,0-3.4,1.6-3.4,4.6c0,2.5,1.3,3.9,3,3.9c1.1,0,2.1-0.6,2.1-0.6l0.3,0.6C132.9,38.8,131.5,39.8,130,39.8
				"/>
			<path id="XMLID_545_" class="st1" d="M138.7,30.4c-1.9,0-2.7,2.4-2.8,3.5l5.1-0.3C141,32.5,140.4,30.4,138.7,30.4 M135.8,34.7
				c0,2.8,1.1,4.2,3.1,4.2c1.1,0,2.2-0.6,2.5-0.6l0.3,0.6c-0.2,0.1-1.7,1-3.2,1c-2.2,0-3.8-1.8-3.8-4.9c0-2.7,1.8-5.3,4.1-5.3
				c2.8,0,3.3,3.2,3.3,4.7L135.8,34.7z"/>
			<path id="XMLID_544_" class="st1" d="M148.8,30.6c-1.4,0-3.2,1.4-3.2,1.4v6c0,0,1.2,0.9,2.7,0.9c2.2,0,3.3-2.1,3.3-4.4
				C151.5,32.3,150.4,30.6,148.8,30.6 M148.6,39.8c-1.5,0-3-1.1-3-1.1v6.3h-1.1V29.9h1l0.1,1.3h0c0,0,1.8-1.5,3.5-1.5
				c1.8,0,3.5,1.6,3.5,4.8C152.7,37.5,151,39.8,148.6,39.8"/>
			<path id="XMLID_543_" class="st1" d="M158.3,39.8c-0.9,0-1.4-0.4-1.7-1c-0.2-0.4-0.2-1-0.2-1.5v-6.5h-2.1V30l2.1-0.1l0.1-2.5
				l1-0.2V30h2.5v0.8h-2.5v6.6c0,0.9,0.2,1.7,1.2,1.7c0.5,0,1-0.2,1-0.2l0.2,0.6C159.9,39.4,159.1,39.8,158.3,39.8"/>
		</g>
	</g>
</g>
</svg>
