<?xml version="1.0" encoding="utf-8"?>
<!-- Generator: Adobe Illustrator 19.2.0, SVG Export Plug-In . SVG Version: 6.00 Build 0)  -->
<svg version="1.1" id="Layer_1" xmlns="http://www.w3.org/2000/svg" xmlns:xlink="http://www.w3.org/1999/xlink" x="0px" y="0px"
	 width="34.2px" height="28.5px" viewBox="0 0 34.2 28.5" style="enable-background:new 0 0 34.2 28.5;" xml:space="preserve">
<style type="text/css">
	.Drop_x0020_Shadow{fill:none;}
	.Round_x0020_Corners_x0020_2_x0020_pt{fill:#FFFFFF;stroke:#231F20;stroke-miterlimit:10;}
	.Live_x0020_Reflect_x0020_X{fill:none;}
	.Bevel_x0020_Soft{fill:url(#SVGID_1_);}
	.Dusk{fill:#FFFFFF;}
	.Foliage_GS{fill:#FFDD00;}
	.Pompadour_GS{fill-rule:evenodd;clip-rule:evenodd;fill:#44ADE2;}
	.st0{fill:#838088;}
</style>
<linearGradient id="SVGID_1_" gradientUnits="userSpaceOnUse" x1="-1993.452" y1="-1672.5145" x2="-1992.7449" y2="-1671.8075">
	<stop  offset="0" style="stop-color:#DEDFE3"/>
	<stop  offset="0.1783" style="stop-color:#DADBDF"/>
	<stop  offset="0.3611" style="stop-color:#CECFD3"/>
	<stop  offset="0.546" style="stop-color:#B9BCBF"/>
	<stop  offset="0.7324" style="stop-color:#9CA0A2"/>
	<stop  offset="0.9181" style="stop-color:#787D7E"/>
	<stop  offset="1" style="stop-color:#656B6C"/>
</linearGradient>
<g>
	<g>
		<path class="st0" d="M0,0v23.8h13.1v-1.1h-12V4.8l16,9.8l16-9.9v18.5h1.1V0H0z M33.1,3.4l-16,9.9l-16-9.8V1.1h32V3.4z M33.1,3.4"
			/>
		<path class="st0" d="M26,25c2,0,3.7-1.8,3.7-4.9c0-3.5-2.4-6-6-6c-4.6,0-7.6,3.7-7.6,8c0,4,2.9,6.5,6.3,6.5c1.4,0,2.6-0.2,3.7-0.8
			l-0.3-0.9c-0.9,0.5-2,0.7-3.1,0.7c-3.1,0-5.3-2.1-5.3-5.6c0-4.2,2.8-6.9,6.2-6.9c3.2,0,5,2.2,5,5.2c0,2.4-1.2,3.8-2.2,3.8
			c-0.7,0-0.9-0.7-0.6-2.3l0.7-3.8c-0.5-0.2-1.3-0.4-2.2-0.4c-2.9,0-4.9,2.3-4.9,4.9c0,1.6,1,2.6,2.2,2.6c1.2,0,2.2-0.6,2.9-1.8h0.1
			C24.4,24.4,25.2,25,26,25L26,25z M21.9,23.9c-0.9,0-1.4-0.7-1.4-1.6c0-2,1.5-3.7,3.3-3.7c0.5,0,0.8,0.1,1,0.1L24.5,21
			C24.3,22.3,23.2,23.9,21.9,23.9L21.9,23.9z M21.9,23.9"/>
	</g>
</g>
</svg>
