<?xml version="1.0" encoding="utf-8"?>
<!-- Generator: Adobe Illustrator 19.2.0, SVG Export Plug-In . SVG Version: 6.00 Build 0)  -->
<svg version="1.1" id="Layer_1" xmlns="http://www.w3.org/2000/svg" xmlns:xlink="http://www.w3.org/1999/xlink" x="0px" y="0px"
	 width="28.5px" height="22.8px" viewBox="0 0 28.5 22.8" style="enable-background:new 0 0 28.5 22.8;" xml:space="preserve">
<style type="text/css">
	.Drop_x0020_Shadow{fill:none;}
	.Round_x0020_Corners_x0020_2_x0020_pt{fill:#FFFFFF;stroke:#231F20;stroke-miterlimit:10;}
	.Live_x0020_Reflect_x0020_X{fill:none;}
	.Bevel_x0020_Soft{fill:url(#SVGID_1_);}
	.Dusk{fill:#FFFFFF;}
	.Foliage_GS{fill:#FFDD00;}
	.Pompadour_GS{fill-rule:evenodd;clip-rule:evenodd;fill:#44ADE2;}
	.st0{fill-rule:evenodd;clip-rule:evenodd;fill:#FFFFFF;}
</style>
<linearGradient id="SVGID_1_" gradientUnits="userSpaceOnUse" x1="-1996.2085" y1="-1676.0419" x2="-1995.5013" y2="-1675.3348">
	<stop  offset="0" style="stop-color:#DEDFE3"/>
	<stop  offset="0.1783" style="stop-color:#DADBDF"/>
	<stop  offset="0.3611" style="stop-color:#CECFD3"/>
	<stop  offset="0.546" style="stop-color:#B9BCBF"/>
	<stop  offset="0.7324" style="stop-color:#9CA0A2"/>
	<stop  offset="0.9181" style="stop-color:#787D7E"/>
	<stop  offset="1" style="stop-color:#656B6C"/>
</linearGradient>
<path class="st0" d="M28.5,2.7c-1,0.4-2.2,0.8-3.4,0.9c1.2-0.7,2.1-1.8,2.6-3.2c-1.1,0.7-2.4,1.1-3.7,1.4C22.9,0.7,21.4,0,19.7,0
	c-3.2,0-5.8,2.6-5.8,5.7c0,0.5,0.1,0.9,0.2,1.3c-4.9-0.2-9.2-2.5-12-6C1.5,1.9,1.2,2.9,1.2,3.9c0,2,1.1,3.8,2.6,4.8
	c-1,0-1.9-0.3-2.6-0.7c0,0,0,0,0,0.1c0,0.7,0.1,1.4,0.4,2.1c0.7,1.8,2.3,3.2,4.3,3.6c-0.5,0.1-1,0.2-1.5,0.2c-0.4,0-0.7,0-1.1-0.1
	c0.8,2.3,2.9,4,5.5,4c-2,1.5-4.5,2.5-7.2,2.5c-0.5,0-0.9,0-1.4-0.1c2.6,1.6,5.7,2.6,9,2.6c9.1,0,14.8-6.3,16.2-12.9
	c0.3-1.2,0.4-2.3,0.4-3.5c0-0.2,0-0.5,0-0.7C26.7,4.9,27.7,3.8,28.5,2.7L28.5,2.7z"/>
</svg>
